{"title":"Ghost Rider Spirit of Vengeance [2012] HDRip H264 elite-pirate","uid":7175448,"size":501874353,"categoryP":"video","categoryS":"movies","magnet":"?xt=urn:btih:55f977125276a4edae59985468aebec046163368&amp;dn=Ghost+Rider+Spirit+of+Vengeance+%5B2012%5D+HDRip+H264+elite-pirate&amp;tr=udp%3A%2F%2Ftracker.openbittorrent.com%3A80&amp;tr=udp%3A%2F%2Fopen.demonii.com%3A1337&amp;tr=udp%3A%2F%2Ftracker.coppersurfer.tk%3A6969&amp;tr=udp%3A%2F%2Fexodus.desync.com%3A6969","seeders":0,"leechers":1,"uploader":"BLOVES","files":4,"time":1334095105,"description":"IMDb : http://www.imdb.com/title/tt1071875/\nSource : HDRip AbSurdiTy.. Thanks!!!\nEncoder : dcloser\nAudio Language : English\n\n\nGeneral\nComplete name : Ghost Rider Spirit of Vengeance [2012] HDRip H264 elite-pirates.com.avi\nFormat : AVI\nFormat/Info : Audio Video Interleave\nFile size : 479 MiB\nDuration : 1h 35mn\nOverall bit rate : 704 Kbps\nWriting library : VirtualDub build 32842/release\n\nVideo\nID : 0\nFormat : AVC\nFormat/Info : Advanced Video Codec\nFormat profile : &lt;a class=&quot;__cf_email__&quot; href=&quot;/cdn-cgi/l/email-protection&quot; data-cfemail=&quot;7d35141a153d314e534d&quot;&gt;[email&amp;#160;protected]&lt;/a&gt;&lt;script cf-hash='f9e31' type=&quot;text/javascript&quot;&gt;\n/* &lt;![CDATA[ */!function(){try{var t=&quot;currentScript&quot;in document?document.currentScript:function(){for(var t=document.getElementsByTagName(&quot;script&quot;),e=t.length;e--;)if(t[e].getAttribute(&quot;cf-hash&quot;))return t[e]}();if(t&amp;&amp;t.previousSibling){var e,r,n,i,c=t.previousSibling,a=c.getAttribute(&quot;data-cfemail&quot;);if(a){for(e=&quot;&quot;,r=parseInt(a.substr(0,2),16),n=2;a.length-n;n+=2)i=parseInt(a.substr(n,2),16)^r,e+=String.fromCharCode(i);e=document.createTextNode(e),c.parentNode.replaceChild(e,c)}}}catch(u){}}();/* ]]&gt; */&lt;/script&gt;\nFormat settings, CABAC : Yes\nFormat settings, ReFrames : 4 frames\nCodec ID : H264\nDuration : 1h 35mn\nBit rate : 496 Kbps\nWidth : 720 pixels\nHeight : 480 pixels\nDisplay aspect ratio : 3:2\nFrame rate : 29.970 fps\nStandard : NTSC\nColor space : YUV\nChroma subsampling : 4:2:0\nBit depth : 8 bits\nScan type : Progressive\nBits/(Pixel*Frame) : 0.048\nStream size : 337 MiB (70%)\nWriting library : x264 core 120 r2120bm 0c7dab9\nEncoding settings : cabac=1 / ref=3 / deblock=1:0:0 / analyse=0x3:0x113 / me=hex / subme=7 / psy=1 / psy_rd=1.00:0.00 / mixed_ref=1 / me_range=16 / chroma_me=1 / trellis=1 / 8x8dct=1 / cqm=0 / deadzone=21,11 / fast_pskip=1 / chroma_qp_offset=-2 / threads=3 / sliced_threads=0 / nr=0 / decimate=1 / interlaced=0 / bluray_compat=0 / constrained_intra=0 / bframes=3 / b_pyramid=2 / b_adapt=1 / b_bias=0 / direct=1 / weightb=1 / open_gop=0 / weightp=2 / keyint=250 / keyint_min=25 / scenecut=40 / intra_refresh=0 / rc_lookahead=40 / rc=crf / mbtree=1 / crf=25.0 / qcomp=0.60 / qpmin=0 / qpmax=69 / qpstep=4 / ip_ratio=1.40 / aq=1:1.00\n\nAudio\nID : 1\nFormat : MPEG Audio\nFormat version : Version 1\nFormat profile : Layer 3\nMode : Joint stereo\nCodec ID : 55\nCodec ID/Hint : MP3\nDuration : 1h 35mn\nBit rate mode : Variable\nBit rate : 128 Kbps\nChannel(s) : 2 channels\nSampling rate : 44.1 KHz\nCompression mode : Lossy\nStream size : 133 MiB (28%)\nAlignment : Aligned on interleaves\nInterleave, duration : 26 ms (0.78 video frame)\nInterleave, preload duration : 893 ms\nWriting library : LAME3.97\n\n\n\n\n","torrent":{"xt":"urn:btih:55f977125276a4edae59985468aebec046163368","amp;dn":"Ghost+Rider+Spirit+of+Vengeance+%5B2012%5D+HDRip+H264+elite-pirate","amp;tr":["udp%3A%2F%2Ftracker.openbittorrent.com%3A80","udp%3A%2F%2Fopen.demonii.com%3A1337","udp%3A%2F%2Ftracker.coppersurfer.tk%3A6969","udp%3A%2F%2Fexodus.desync.com%3A6969"],"infoHash":"55f977125276a4edae59985468aebec046163368","infoHashBuffer":{"type":"Buffer","data":[85,249,119,18,82,118,164,237,174,89,152,84,104,174,190,192,70,22,51,104]},"announce":[],"urlList":[]}}